# xmcd
#
# Track frame offsets:
#	150
#	18655
#	45346
#	61132
#	81575
#	102398
#	114828
#	130087
#	150108
#	169919
#	185450
#	210541
#	221753
#	240019
#	262368
#	276822
#	298163
#
# Disc length: 4421
#
# Revision: 1
# Processed by: cddbd v1.5.1PL0 Copyright (c) Steve Scherf et al.
# Submitted via: Feurio! 1.65 - http://www.feurio.com
# Normalized: r0:DSETVAR1
#
DISCID=ef114311
DTITLE=Various Artist - Nite Time Ballads Vol. #2
DYEAR=1900
DGENRE=blues
TTITLE0=Heaven and Earth - Find Love
TTITLE1=E. J. Johnson - It's True I Love You
TTITLE2=David Ruffin and E. Kendricks - I Couldn't Believe
TTITLE3=Stylistics - Mine All Mine
TTITLE4=Jeffery - Better Wake Up Girl
TTITLE5=Zapp - Be Alright
TTITLE6=Presidents - Triangle Of Love
TTITLE7=Leroy Huston - When You Smile
TTITLE8=Natural 4 - Try Love Again
TTITLE9=Natural 4 - Can This Be Real
TTITLE10=Average White Band - A Love Of My Own
TTITLE11=Presidents - It's All Over
TTITLE12=Impact - Man And Woman
TTITLE13=Ray, Goodman and Brown - Inside Of You
TTITLE14=LeRoy Huston - I'll Still Care
TTITLE15=Ray, Goodman and Brown - Take It To The Limit
TTITLE16=Men At Large - So Alone
EXTD=
EXTT0=
EXTT1=
EXTT2=
EXTT3=
EXTT4=
EXTT5=
EXTT6=
EXTT7=
EXTT8=
EXTT9=
EXTT10=
EXTT11=
EXTT12=
EXTT13=
EXTT14=
EXTT15=
EXTT16=
PLAYORDER=
